{
  "accessors": [
    {
      "bufferView": 2,
      "componentType": 5126,
      "count": 3093,
      "max": [
        0.16352741420269012,
        0.1550006866455078,
        0.08366267383098602
      ],
      "min": [
        -0.16352739930152893,
        0.0,
        -0.08366267383098602
      ],
      "type": "VEC3"
    },
    {
      "bufferView": 2,
      "byteOffset": 37116,
      "componentType": 5126,
      "count": 3093,
      "max": [
        1.0,
        1.0,
        1.0
      ],
      "min": [
        -1.0,
        -0.9877015948295593,
        -1.0
      ],
      "type": "VEC3"
    },
    {
      "bufferView": 1,
      "componentType": 5126,
      "count": 3093,
      "max": [
        0.9979633092880249,
        0.9734615683555603
      ],
      "min": [
        0.0020408201962709427,
        0.0020350825507193804
      ],
      "type": "VEC2"
    },
    {
      "bufferView": 1,
      "byteOffset": 24744,
      "componentType": 5126,
      "count": 3093,
      "max": [
        1.0018270015716553,
        1.0022356510162354
      ],
      "min": [
        -0.0018268268322572112,
        -0.002235797233879566
      ],
      "type": "VEC2"
    },
    {
      "bufferView": 1,
      "byteOffset": 49488,
      "componentType": 5126,
      "count": 3093,
      "max": [
        0.9979633092880249,
        0.9734615683555603
      ],
      "min": [
        0.0020408201962709427,
        0.0020350825507193804
      ],
      "type": "VEC2"
    },
    {
      "bufferView": 1,
      "byteOffset": 74232,
      "componentType": 5126,
      "count": 3093,
      "max": [
        0.9979633092880249,
        0.9734615683555603
      ],
      "min": [
        0.0020408201962709427,
        0.0020350825507193804
      ],
      "type": "VEC2"
    },
    {
      "bufferView": 0,
      "componentType": 5125,
      "count": 5577,
      "type": "SCALAR"
    }
  ],
  "asset": {
    "extras": {
      "author": "3d.baumeister (https://sketchfab.com/baumeister)",
      "license": "CC-BY-4.0 (http://creativecommons.org/licenses/by/4.0/)",
      "source": "https://sketchfab.com/3d-models/vitra-toolbox-0010ec2e99114c4cbb81475701501a03",
      "title": "Vitra Toolbox"
    },
    "generator": "Sketchfab-12.65.0",
    "version": "2.0"
  },
  "bufferViews": [
    {
      "buffer": 0,
      "byteLength": 22308,
      "name": "floatBufferViews",
      "target": 34963
    },
    {
      "buffer": 0,
      "byteLength": 98976,
      "byteOffset": 22308,
      "byteStride": 8,
      "name": "floatBufferViews",
      "target": 34962
    },
    {
      "buffer": 0,
      "byteLength": 74232,
      "byteOffset": 121284,
      "byteStride": 12,
      "name": "floatBufferViews",
      "target": 34962
    }
  ],
  "buffers": [
    {
      "byteLength": 195516,
      "uri": "scene.bin"
    }
  ],
  "images": [
    {
      "uri": "textures/M_VitraToolbox_baseColor.jpeg"
    },
    {
      "uri": "textures/M_VitraToolbox_metallicRoughness.png"
    }
  ],
  "materials": [
    {
      "doubleSided": true,
      "name": "M_VitraToolbox",
      "pbrMetallicRoughness": {
        "baseColorFactor": [
          0.634048057688683,
          0.634048057688683,
          0.634048057688683,
          1.0
        ],
        "baseColorTexture": {
          "index": 0
        },
        "metallicFactor": 0.0,
        "metallicRoughnessTexture": {
          "index": 1
        },
        "roughnessFactor": 0.7799722136086435
      }
    }
  ],
  "meshes": [
    {
      "name": "Object_0",
      "primitives": [
        {
          "attributes": {
            "NORMAL": 1,
            "POSITION": 0,
            "TEXCOORD_0": 2,
            "TEXCOORD_1": 3,
            "TEXCOORD_2": 4,
            "TEXCOORD_3": 5
          },
          "indices": 6,
          "material": 0,
          "mode": 4
        }
      ]
    }
  ],
  "nodes": [
    {
      "children": [
        1
      ],
      "matrix": [
        1.0,
        0.0,
        0.0,
        0.0,
        0.0,
        2.220446049250313e-16,
        -1.0,
        0.0,
        0.0,
        1.0,
        2.220446049250313e-16,
        0.0,
        0.0,
        0.0,
        0.0,
        1.0
      ],
      "name": "Sketchfab_model"
    },
    {
      "children": [
        2
      ],
      "name": "root"
    },
    {
      "children": [
        3
      ],
      "matrix": [
        1.0,
        0.0,
        0.0,
        0.0,
        0.0,
        2.220446049250313e-16,
        1.0,
        0.0,
        0.0,
        -1.0,
        2.220446049250313e-16,
        0.0,
        0.0,
        0.0,
        0.0,
        1.0
      ],
      "name": "GLTF_SceneRootNode"
    },
    {
      "children": [
        4
      ],
      "name": "VitraToolbox_0"
    },
    {
      "mesh": 0,
      "name": "Object_4"
    }
  ],
  "samplers": [
    {
      "magFilter": 9729,
      "minFilter": 9987,
      "wrapS": 10497,
      "wrapT": 10497
    }
  ],
  "scene": 0,
  "scenes": [
    {
      "name": "Sketchfab_Scene",
      "nodes": [
        0
      ]
    }
  ],
  "textures": [
    {
      "sampler": 0,
      "source": 0
    },
    {
      "sampler": 0,
      "source": 1
    }
  ]
}
